<svg xmlns="http://www.w3.org/2000/svg" width="106.461" height="100.153" viewBox="0 0 106.461 100.153">
  <defs>
    <style>
      .cls-1 {
        fill: #fff;
      }
    </style>
  </defs>
  <g id="Group_60" data-name="Group 60" transform="translate(-168.094 -405.502)">
    <path id="Path_26" data-name="Path 26" class="cls-1" d="M214.977,513.257a12.736,12.736,0,0,1-2.569-2.7,4.289,4.289,0,0,1-.7-2.294v-.329a2.411,2.411,0,0,1,.514-1.67,2.178,2.178,0,0,1,2.935,0,2.417,2.417,0,0,1,.514,1.67v.587h3.742v-.661a5.807,5.807,0,1,0-11.594,0v.551a7.94,7.94,0,0,0,1.064,4.091,16.985,16.985,0,0,0,3.706,4.054,14.227,14.227,0,0,1,2.642,2.734,4.25,4.25,0,0,1,.734,2.367v.844q0,2.422-2.2,2.422t-2.2-2.422v-1.468h-3.742v1.724a5.637,5.637,0,0,0,1.559,4.256,7.359,7.359,0,0,0,8.915,0,5.639,5.639,0,0,0,1.559-4.256v-1.284a7.835,7.835,0,0,0-1.1-4.109A17.921,17.921,0,0,0,214.977,513.257Z" transform="translate(-14.319 -34.817)"/>
    <path id="Path_27" data-name="Path 27" class="cls-1" d="M234.723,514.435H222.536V518.1h4.152v15.469h3.889V518.1h4.146Z" transform="translate(-19.622 -39.261)"/>
    <path id="Path_28" data-name="Path 28" class="cls-1" d="M243.6,531.037h-.073l-3.265-9.1h-4.109l5.393,14.052v11.63h3.889V536.027l5.32-14.089h-4.036Z" transform="translate(-24.53 -41.966)"/>
    <path id="Path_29" data-name="Path 29" class="cls-1" d="M248.444,502.556h22.014v-3.889H244.775V509.05h3.669Z" transform="translate(-27.637 -33.578)"/>
    <rect id="Rectangle_219" data-name="Rectangle 219" class="cls-1" width="3.889" height="20.569" transform="translate(226.994 470.926)"/>
    <path id="Path_30" data-name="Path 30" class="cls-1" d="M272.012,511.389h6.861v-3.6h-10.75v25.683h3.889V522.249h3.962v-3.6h-3.962Z" transform="translate(-36.052 -36.868)"/>
    <path id="Path_31" data-name="Path 31" class="cls-1" d="M285.91,525.386h-.074l-3.265-9.1h-4.109l5.393,14.052v7.389h3.889v-7.352l5.32-14.089h-4.036Z" transform="translate(-39.779 -39.929)"/>
    <path id="Path_32" data-name="Path 32" class="cls-1" d="M266.17,450.617l-38.7-12.122a39.609,39.609,0,0,1,4.173-4.289c3.584-3.337,7.647-7.119,7.647-12.258a16.447,16.447,0,0,0-32.893,0,14.6,14.6,0,0,0,2.379,8.375,4.446,4.446,0,0,0,7.189-5.234,6.816,6.816,0,0,1-.676-3.141,7.554,7.554,0,1,1,15.109,0c0,1.269-2.9,3.966-4.814,5.751-3.035,2.826-6.377,5.95-7.7,9.962-.042.012-.086.016-.129.029l-41.272,12.927a11.955,11.955,0,0,0,3.573,23.363h10.334c0-.128-.012-.255-.012-.383v-.551a8.229,8.229,0,0,1,2.254-6.065,7.317,7.317,0,0,1,2.97-1.776v-.116H180.052a3.063,3.063,0,0,1-.915-5.986l41.272-12.927a3.073,3.073,0,0,1,1.83,0L263.513,459.1a3.063,3.063,0,0,1-.916,5.986l-17.789.006v8.885H262.6a11.955,11.955,0,0,0,3.573-23.363Z" transform="translate(0 0)"/>
    <path id="Path_33" data-name="Path 33" class="cls-1" d="M226.01,505.218h7.017v-6.545l-12.164-.006v.111a7.331,7.331,0,0,1,2.986,1.781A7.753,7.753,0,0,1,226.01,505.218Z" transform="translate(-19.019 -33.578)"/>
  </g>
</svg>
