<svg id="Group_7" data-name="Group 7" xmlns="http://www.w3.org/2000/svg" xmlns:xlink="http://www.w3.org/1999/xlink" width="678.757" height="245.255" viewBox="0 0 678.757 245.255">
  <defs>
    <style>
      .cls-1 {
        fill: none;
      }

      .cls-2 {
        fill: #485a61;
      }

      .cls-3 {
        clip-path: url(#clip-path);
      }

      .cls-4 {
        fill: #a3b0ab;
      }

      .cls-5 {
        fill: #f1705c;
      }
    </style>
    <clipPath id="clip-path">
      <rect id="Rectangle_19" data-name="Rectangle 19" class="cls-1" width="678.757" height="245.255"/>
    </clipPath>
  </defs>
  <path id="Path_1" data-name="Path 1" class="cls-2" d="M48.221,1.037,33.99,42.561h-.334L18.754,1.037H0L24.613,65.164v53.079H42.362V65.332l24.277-64.3Z" transform="translate(0 0.638)"/>
  <g id="Group_4" data-name="Group 4">
    <g id="Group_3" data-name="Group 3" class="cls-3">
      <path id="Path_2" data-name="Path 2" class="cls-2" d="M93.383,7.954Q101,15.908,101,29.636V90.919q0,13.73-7.619,21.682t-21.013,7.953q-13.4,0-21.013-7.953T43.737,90.919V29.636q0-13.728,7.619-21.682T72.369,0Q85.763,0,93.383,7.954M64.248,19.841q-2.763,3.434-2.763,9.963V90.751q0,6.531,2.763,9.963t8.121,3.433q5.356,0,8.12-3.433t2.763-9.963V29.8q0-6.531-2.763-9.963t-8.12-3.433q-5.363,0-8.121,3.433" transform="translate(26.922 0.001)"/>
      <path id="Path_3" data-name="Path 3" class="cls-2" d="M144.154,91.955q0,13.563-7.283,20.763t-20.344,7.2q-12.725,0-20.008-7.2T89.235,91.955V1.037h17.078V91.451q0,11.724,10.047,11.721t10.045-11.721V1.037h17.748Z" transform="translate(54.928 0.638)"/>
      <path id="Path_4" data-name="Path 4" class="cls-2" d="M174.439,118.242,160.374,68.68h-8.2v49.562H134.422V1.036H160.04q14.4,0,21.934,7.619t7.535,22.018v8.372q0,18.584-12.558,25.786l16.241,53.411ZM152.17,17.445V52.273h7.2q6.361,0,9.375-3.517t3.015-10.882V31.844q0-7.364-3.015-10.882t-9.375-3.517Z" transform="translate(82.742 0.638)"/>
    </g>
  </g>
  <path id="Path_5" data-name="Path 5" class="cls-4" d="M136.7,195.431H118.619l-10.047-69.82h-.334l-10.213,69.82H79.941L61.857,78.225H80.107l10.215,77.69h.334L100.7,78.225h15.739l10.047,77.69h.334l10.213-77.69h17.748Z" transform="translate(38.075 48.151)"/>
  <path id="Path_6" data-name="Path 6" class="cls-4" d="M183.951,195.429H165.869l-3.851-26.621h-19.59l-3.851,26.621H120.829l20.259-117.2h22.6Zm-31.98-92.089-7.2,49.394h14.9l-7.2-49.394Z" transform="translate(74.375 48.151)"/>
  <g id="Group_6" data-name="Group 6">
    <g id="Group_5" data-name="Group 5" class="cls-3">
      <path id="Path_7" data-name="Path 7" class="cls-4" d="M207.795,195.431,193.73,145.869h-8.2v49.562H167.778V78.225H193.4q14.4,0,21.934,7.619t7.533,22.018v8.372q0,18.584-12.556,25.786l16.241,53.411Zm-22.269-100.8v34.828h7.2q6.361,0,9.377-3.517t3.015-10.882v-6.029q0-7.364-3.015-10.882t-9.377-3.517Z" transform="translate(103.274 48.151)"/>
      <path id="Path_8" data-name="Path 8" class="cls-4" d="M259.521,85.844q7.534,7.621,7.533,22.018v57.932q0,14.4-7.533,22.018t-21.934,7.619H212.136V78.225h25.451q14.4,0,21.934,7.619m-29.637,8.79v84.388h7.032q6.361,0,9.375-3.515t3.015-10.884V109.033q0-7.364-3.015-10.882t-9.375-3.517Z" transform="translate(130.579 48.151)"/>
      <path id="Path_9" data-name="Path 9" class="cls-4" d="M296.821,195.431l-14.065-49.562h-8.2v49.562H256.8V78.225h25.618q14.4,0,21.934,7.619t7.535,22.018v8.372q0,18.584-12.558,25.786l16.241,53.411Zm-22.269-100.8v34.828h7.2q6.364,0,9.378-3.517t3.013-10.882v-6.029q0-7.364-3.013-10.882t-9.378-3.517Z" transform="translate(158.074 48.151)"/>
      <path id="Path_10" data-name="Path 10" class="cls-4" d="M349.565,85.142q7.619,7.953,7.619,21.682v61.282q0,13.73-7.619,21.682t-21.013,7.953q-13.4,0-21.012-7.953t-7.619-21.682V106.824q0-13.728,7.619-21.682t21.012-7.953q13.4,0,21.013,7.953M320.432,97.029q-2.765,3.434-2.763,9.963v60.946q0,6.531,2.763,9.963t8.12,3.433q5.356,0,8.121-3.433t2.763-9.963V106.993q0-6.531-2.763-9.963T328.552,93.6q-5.36,0-8.12,3.433" transform="translate(184.614 47.513)"/>
      <path id="Path_11" data-name="Path 11" class="cls-4" d="M391.832,85.842q7.284,7.621,7.284,22.018v2.178q0,9.88-3.181,15.739a17.259,17.259,0,0,1-10.045,8.2v.334q8.2,2.513,11.971,9.126t3.767,18.333v4.019q0,14.4-7.535,22.018t-21.934,7.617h-26.12V78.225H370.82q13.728,0,21.012,7.617m-28.044,8.79v31.981h5.525q6.361,0,9.209-3.433t2.847-10.8v-3.851q0-7.2-2.679-10.549t-8.54-3.349Zm0,48.39v36h7.7q6.361,0,9.375-3.515t3.015-10.884v-6.53q0-7.866-3.1-11.469t-10.131-3.6Z" transform="translate(213.001 48.151)"/>
      <path id="Path_12" data-name="Path 12" class="cls-4" d="M439.154,94.634H407.006v33.153h25.952V144.2H407.006v34.826h32.148v16.409h-49.9V78.225h49.9Z" transform="translate(239.603 48.151)"/>
      <path id="Path_13" data-name="Path 13" class="cls-5" d="M156.722,54.516q1.595-3.5,2.966-7.128a1.894,1.894,0,0,0,.089-.221,24.5,24.5,0,0,0,1.107-3.674,2.381,2.381,0,0,1,.089-.664,1.8,1.8,0,0,0,.132-.929,4.67,4.67,0,0,0-.664-1.682,2.545,2.545,0,0,0-1.527-.62,1.786,1.786,0,0,0-.908.265,2.328,2.328,0,0,1-.31.132,3.117,3.117,0,0,0-.8.532c-.089.06-.178.118-.265.178a43.307,43.307,0,0,0-4.65,5.045q-2.036,2.612-3.939,5.312-.62.887-1.284,1.772Q138,65.45,130.427,78.773q-5.622,9.827-10.579,20.054a12.118,12.118,0,0,0-.931.84c-.354.326-.722.649-1.107.974a53.808,53.808,0,0,1-12.7,7.215,20.974,20.974,0,0,1-6.73,1.549,7.57,7.57,0,0,1-1.46-.132,2.57,2.57,0,0,1-.973-.354.132.132,0,0,1-.09-.044.521.521,0,0,1-.176-.179.619.619,0,0,1-.044-.265,3.1,3.1,0,0,1,.087-.575,13.072,13.072,0,0,1,3.165-5.622,19.514,19.514,0,0,1,5.469-4.071,23.617,23.617,0,0,1,6.551-2.126,12.064,12.064,0,0,1,3.231-.176,7.8,7.8,0,0,0,1.262.221,3.314,3.314,0,0,0,1.173-.132l1.727-.488a.126.126,0,0,1,.087-.044,1.013,1.013,0,0,0,.6-.554,1.192,1.192,0,0,0,.023-.819,4,4,0,0,0-2.036-2.17,7.1,7.1,0,0,0-2.436-.574,19.394,19.394,0,0,0-4.381.22,26.913,26.913,0,0,0-7.835,2.7,24.007,24.007,0,0,0-6.662,5.07,17.366,17.366,0,0,0-4.094,7.591,4.773,4.773,0,0,0,.066,2.966,4.379,4.379,0,0,0,1.969,2.611,6.924,6.924,0,0,0,2.546.976,16.434,16.434,0,0,0,2.367.176,26.393,26.393,0,0,0,8.057-1.9,52.409,52.409,0,0,0,9.651-5.223,109.491,109.491,0,0,0-5.179,13.944,38.971,38.971,0,0,0-1.46,7.7,17.4,17.4,0,0,0,.221,4.071,6.914,6.914,0,0,0,2.124,3.851h.045a.866.866,0,0,0,.685.223,1.161,1.161,0,0,0,.687-.355,1.085,1.085,0,0,0,.2-.709.924.924,0,0,0-.331-.664l-.045-.044a4.5,4.5,0,0,1-1.438-2.722,13.284,13.284,0,0,1-.111-3.519,37.3,37.3,0,0,1,1.46-7.26,113.368,113.368,0,0,1,5.4-14.076q.4-.841.842-1.638c.236-.444.457-.9.664-1.373a.132.132,0,0,0,.089-.044.507.507,0,0,0,.132-.089,105.245,105.245,0,0,0,21.314-22.466,160.853,160.853,0,0,0,15.205-26.8M124.629,94.577q3.851-7.347,8.057-14.475,7.7-13.146,16.511-25.542a93.759,93.759,0,0,1,7.968-9.827c-.089.236-.162.459-.221.664a5.547,5.547,0,0,1-.265.842q-1.374,3.451-3.01,6.9A153.78,153.78,0,0,1,141.1,75.321a115.675,115.675,0,0,1-16.467,19.256" transform="translate(56.234 24.373)"/>
      <path id="Path_14" data-name="Path 14" class="cls-5" d="M134.169,64.864q-1.107,1.151-1.748,1.926a14.708,14.708,0,0,0-.931,1.217,3.49,3.49,0,0,0-.376.709,1.566,1.566,0,0,0-.087.486,2.2,2.2,0,0,0,.509,1.682,2.4,2.4,0,0,0,1.572.842h.22a2.308,2.308,0,0,0,2.037-1.2,10.886,10.886,0,0,1,1-1.262c.459-.515.848-.937,1.175-1.262a2.167,2.167,0,0,0,.619-1.637,2.338,2.338,0,0,0-.708-1.595,2.363,2.363,0,0,0-1.661-.641,2.31,2.31,0,0,0-1.616.73" transform="translate(80.645 39.477)"/>
      <path id="Path_15" data-name="Path 15" class="cls-5" d="M181.551,71.726h.221a2.306,2.306,0,0,0,2.036-1.2,10.587,10.587,0,0,1,1-1.262q.686-.773,1.173-1.262a2.155,2.155,0,0,0,.619-1.637,2.344,2.344,0,0,0-.706-1.595,2.37,2.37,0,0,0-1.662-.641,2.31,2.31,0,0,0-1.616.73q-1.107,1.151-1.748,1.926a14.624,14.624,0,0,0-.929,1.217,3.411,3.411,0,0,0-.376.709,1.525,1.525,0,0,0-.089.486,2.189,2.189,0,0,0,.509,1.682,2.406,2.406,0,0,0,1.572.842" transform="translate(110.464 39.477)"/>
      <path id="Path_16" data-name="Path 16" class="cls-5" d="M358.7,94.741a.938.938,0,0,0-.575-.444,1.016,1.016,0,0,0-.709.089v.044q-3.01,1.774-6.065,3.41-3.1,1.636-6.2,3.186-6.286,3.143-12.75,5.709a110.33,110.33,0,0,1-13.147,4.3,67.225,67.225,0,0,1-6.729,1.239q-1.682.221-3.364.31h-1.284a.77.77,0,0,1-.354,0,7.182,7.182,0,0,1-1.415-.134,3.6,3.6,0,0,1-1.063-.443,2.112,2.112,0,0,1-.664-.708,4.585,4.585,0,0,1-.267-2.48,14.713,14.713,0,0,1,.709-3.053q.177-.531.354-1.018h.045c.234-.149.472-.31.708-.488a12.341,12.341,0,0,0,1.283-1.194l2.393-2.569,4.735-5.179,9.474-10.357q9.516-10.36,18.724-21.026,2.3-2.7,4.561-5.446,2.256-2.7,4.381-5.577,1.107-1.415,2.124-2.966.487-.754.973-1.593a6.14,6.14,0,0,0,.488-.887q.221-.485.444-1.107a2.839,2.839,0,0,0,.176-.84,2.513,2.513,0,0,0,0-.664,2.886,2.886,0,0,0-.31-.931,2.349,2.349,0,0,0-.931-.929,1.905,1.905,0,0,0-.929-.31,1.473,1.473,0,0,0-.354-.044h-.31c-.207.029-.383.06-.532.089a5.261,5.261,0,0,0-1.239.486,5.679,5.679,0,0,0-.929.575,26.487,26.487,0,0,0-3.01,2.259q-2.746,2.346-5.312,4.824-2.523,2.481-4.958,5.047Q332,61.053,327.4,66.409q-4.648,5.356-8.986,10.934t-8.278,11.509q-1.994,2.92-3.808,6.021a64.683,64.683,0,0,0-3.318,6.373.961.961,0,0,0-.133.31.173.173,0,0,0-.045.132,2.857,2.857,0,0,0-.355.664,5.065,5.065,0,0,0-.352.931.688.688,0,0,0-.045.22c-.031.082-.053.171-.084.255-1.107.405-2.208.829-3.323,1.207q-3.012,1.061-6.065,1.948-3.056.928-6.108,1.593-1.551.356-3.055.574a21.422,21.422,0,0,1-3.053.223,10.564,10.564,0,0,1-1.417-.089,4.757,4.757,0,0,1-1.241-.31,1.56,1.56,0,0,1-.4-.265.9.9,0,0,1-.267-.31.551.551,0,0,1-.089-.31,1.362,1.362,0,0,1,0-.486,4.187,4.187,0,0,1,.312-1.239q.308-.62.664-1.241a27,27,0,0,1,1.769-2.435q.887-1.061,1.816-2.036a.729.729,0,0,1,.176-.132,2.908,2.908,0,0,1,.31-.265q1.815-1.464,3.543-2.966.882-.754,1.725-1.549c.3-.267.59-.546.885-.842a5.452,5.452,0,0,0,.443-.4,1.687,1.687,0,0,1,.221-.265c.029-.029.073-.074.132-.132a.564.564,0,0,0,.089-.132l.044-.09a.832.832,0,0,0,.066-.066.086.086,0,0,0,.023-.066.177.177,0,0,0,.044-.132,1.386,1.386,0,0,0-.176-1.417,1.242,1.242,0,0,0-.908-.485,1.5,1.5,0,0,0-1.039.309q-2.525,2.038-4.871,4.294c-.207.178-.4.354-.575.53q-.708.579-1.462,1.152-3.54,2.833-7.3,5.312-1.9,1.241-3.851,2.3a37.418,37.418,0,0,1-3.94,1.947,16.142,16.142,0,0,1-3.982,1.108,5.022,5.022,0,0,1-1.772-.045,2.422,2.422,0,0,1-1.194-.619,3.2,3.2,0,0,1-.753-1.33q-.133-.441-.223-.885a.85.85,0,0,0-.044-.265v-.619A5.208,5.208,0,0,1,258.3,101.6a10.665,10.665,0,0,1,3.01-2.569,18.834,18.834,0,0,1,3.806-1.814,34.756,34.756,0,0,1,8.5-1.861A31.672,31.672,0,0,1,278,95.226c.709.031,1.415.089,2.124.178a.382.382,0,0,1,.178.045.988.988,0,0,1,.309.044,3.278,3.278,0,0,0,.531.045,1.7,1.7,0,0,0,.532-.089,1.75,1.75,0,0,0,.619-.223l.133-.087a.135.135,0,0,1,.09-.045,1.587,1.587,0,0,0,.641-1.018,1.435,1.435,0,0,0-.288-1.15,1.667,1.667,0,0,0-1.107-.8,1.29,1.29,0,0,0-.575-.132c-.149-.027-.3-.058-.444-.087h-.176a17,17,0,0,0-2.435-.178,32.649,32.649,0,0,0-4.826.178,36.759,36.759,0,0,0-4.737.751,35.769,35.769,0,0,0-4.6,1.373,25.326,25.326,0,0,0-4.428,2.124,19.51,19.51,0,0,0-2.079,1.5c-.121.105-.233.229-.352.339a1.034,1.034,0,0,0-.62.192q-2.435,2.084-4.914,4.028-2.435,2.038-5,3.9-2.525,1.9-5.136,3.583-1.328.887-2.656,1.595a20.691,20.691,0,0,1-2.7,1.328,9.775,9.775,0,0,1-1.373.488,4.755,4.755,0,0,1-1.2.176,1.223,1.223,0,0,1-.354-.044.623.623,0,0,1-.11-.066.09.09,0,0,0-.066-.023.321.321,0,0,1-.044-.132.424.424,0,0,1-.089-.31,3.691,3.691,0,0,1,0-1.15,12.192,12.192,0,0,1,.265-1.373,26.847,26.847,0,0,1,.973-2.834,53.5,53.5,0,0,1,2.658-5.577q1.461-2.746,3.1-5.444,6.063-9.783,12.97-19.034l3.94-.178,3.364-.178,3.409-.176q.708-.046,1.417-.089,2.656-.177,5.357-.354,3.361-.223,6.727-.488,3.41-.267,6.772-.619,1.682-.177,3.409-.4a3.244,3.244,0,0,0,.53-.044,1.353,1.353,0,0,1,.312-.045l.441-.087.4-.09.444-.044c.087-.029.191-.058.309-.089h.132l.221-.087h.09a.792.792,0,0,0,.176-.045,2.349,2.349,0,0,1,.486-.132.914.914,0,0,0,.509-.42,1.049,1.049,0,0,0,.112-.641.96.96,0,0,0-.376-.6.982.982,0,0,0-.687-.153l-.176.044a.992.992,0,0,0-.31.044.342.342,0,0,0-.132.045h-.267a.181.181,0,0,1-.134.044h-.22l-.443.045-.4.044-.4.044h-.31a3.278,3.278,0,0,0-.531.045q-1.684.09-3.364.132-3.366.09-6.729.132-3.366.09-6.729.134l-6.772.087-7.525.089q3.01-3.94,6.065-7.835,1.99-2.479,3.984-4.913l2.036-2.48,1.018-1.2a2.451,2.451,0,0,0,.42-.685,1.706,1.706,0,0,0,.023-1v-.044a2.434,2.434,0,0,0-2.3-1.859,1.839,1.839,0,0,0-.974.221,2.024,2.024,0,0,0-.575.532l-1.018,1.239-1.992,2.523q-1.992,2.479-3.984,5.047-3.9,5.045-7.658,10.225c-.06.06-.105.1-.132.132a.582.582,0,0,1-.089.132l-.8.045-6.774.087-3.364.045-1.727.045h-1.061a.255.255,0,0,0-.178.087.825.825,0,0,0-.221.221c-.058.118-.132.265-.221.443a4.517,4.517,0,0,0,.089,2.921l.044.045a.977.977,0,0,0,.223.4.78.78,0,0,0,.22.223.258.258,0,0,0,.178.087h.22l.843-.044,1.682-.089,3.407-.132,4.472-.178q-2.125,3.012-4.16,6.065-1.774,2.656-3.5,5.4-1.684,2.746-3.276,5.533c-.693,1.179-1.352,2.373-2,3.575q-6.773,3.162-13.63,5.987a90.335,90.335,0,0,1-14.075,4.868,17.017,17.017,0,0,1-2.281.4,12.278,12.278,0,0,1-2.147.066q-.928-.068-1.152-.378c-.116,0-.124-.257-.021-.774a11.531,11.531,0,0,1,.575-1.859,9.2,9.2,0,0,1,1.086-2.015,54.166,54.166,0,0,1,4.292-5.932l2.391-2.832,1.239-1.417a1.148,1.148,0,0,1,.4-.443,1.214,1.214,0,0,0,.42-.486,1.273,1.273,0,0,0-.11-.974,3.613,3.613,0,0,0-2.3-2.036h-.044a1.384,1.384,0,0,0-1,0,1.029,1.029,0,0,0-.422.486,1.494,1.494,0,0,1-.4.486L206.377,92.7l-2.389,3.053a56.2,56.2,0,0,0-3.265,4.78,4.164,4.164,0,0,0-1.606.178,5.67,5.67,0,0,1-.929.178,30.182,30.182,0,0,0-3.808,1.194q-3.63,1.464-7.039,3.231-6.9,3.453-13.5,7.438-.754.487-1.5.929a11.433,11.433,0,0,1-1.284.8c.178-.265.354-.53.531-.8q2.83-4.161,5.533-8.411l4.028-6.551q1.018-1.636,1.948-3.5l.265-.53a.3.3,0,0,1,.023-.134.191.191,0,0,0,.023-.089.743.743,0,0,0,.089-.11.58.58,0,0,0,.066-.221,3.725,3.725,0,0,0,.021-.443c0-.191-.015-.449-.044-.774.029-.267-.132-.532-.486-.8a3.514,3.514,0,0,0-1.173-.575.931.931,0,0,0-.953.134c-.058.027-.1.052-.132.066a.175.175,0,0,1-.066.023h-.066a.04.04,0,0,1-.045.044l-.443.309-.265.312-.354.352a16.2,16.2,0,0,1-1.239,1.2q-1.418,1.149-2.923,2.257c-.265.207-.532.4-.8.575a6.878,6.878,0,0,0-3.121-1.572,26.177,26.177,0,0,0-3.43-.507,5.785,5.785,0,0,1-.709-.045,21.417,21.417,0,0,0-8.365,1.595,15.539,15.539,0,0,0-4.522,2.748c-3.83,1.754-7.677,3.449-11.548,5.042a90.294,90.294,0,0,1-14.076,4.868,16.946,16.946,0,0,1-2.28.4,12.283,12.283,0,0,1-2.147.066q-.931-.068-1.15-.378c-.12,0-.128-.257-.023-.774a11.533,11.533,0,0,1,.575-1.859,9.2,9.2,0,0,1,1.084-2.015,54.177,54.177,0,0,1,4.294-5.932l2.391-2.832,1.239-1.417a1.148,1.148,0,0,1,.4-.443,1.214,1.214,0,0,0,.42-.486,1.273,1.273,0,0,0-.11-.974,3.613,3.613,0,0,0-2.3-2.036h-.045a1.385,1.385,0,0,0-1,0,1.046,1.046,0,0,0-.422.486,1.487,1.487,0,0,1-.4.486L128.113,92.7l-2.391,3.053a56.779,56.779,0,0,0-4.383,6.6,19.6,19.6,0,0,0-1.725,3.9,9.281,9.281,0,0,0-.333,2.522,4.547,4.547,0,0,0,1.262,3.01,5.669,5.669,0,0,0,2.635,1.241,10.319,10.319,0,0,0,2.28.089h.132a21.865,21.865,0,0,0,4.073-.709,89.818,89.818,0,0,0,13.9-5.335c2.5-1.208,4.968-2.462,7.412-3.742a12.145,12.145,0,0,0-.9,2.569,5.479,5.479,0,0,1-.132.753,5.459,5.459,0,0,0-.132.774,6.18,6.18,0,0,0,0,1.042,3.371,3.371,0,0,0,.73,1.947,3.11,3.11,0,0,0,1.793,1.284,6.967,6.967,0,0,0,2.478.22,10.692,10.692,0,0,0,1.859-.4c.236-.06.486-.118.753-.178a30.683,30.683,0,0,0,3.806-1.549,73.973,73.973,0,0,0,6.95-3.719q3.5-2.166,6.818-4.514l-1.063,1.771q-4.027,6.463-8.234,12.837l-1.15,1.682q-.443.664-.929,1.33-7.881,5.087-15.449,10.624-6.2,4.558-12,9.737a65.535,65.535,0,0,0-5.578,5.535c-.265.354-.546.706-.842,1.061a18.177,18.177,0,0,0-2.013,2.745,7.553,7.553,0,0,0,.023,8.144,3.63,3.63,0,0,0,2.234,1.748,4.189,4.189,0,0,0,2.722.024,14.114,14.114,0,0,0,3.674-1.75,27.178,27.178,0,0,0,2.966-2.325,4.881,4.881,0,0,1,.4-.352,106.907,106.907,0,0,0,10.58-11.377q9.3-11.511,17.529-23.682l2.124-1.417q2.479-1.638,5-3.187,6.507-4.03,13.28-7.525,3.364-1.771,6.861-3.187a35.243,35.243,0,0,1,3.5-1.2,5.589,5.589,0,0,1,.829-.157,19.764,19.764,0,0,0-1.58,3.611,9.278,9.278,0,0,0-.333,2.522,4.557,4.557,0,0,0,1.263,3.01,5.666,5.666,0,0,0,2.632,1.241,10.34,10.34,0,0,0,2.281.089h.134a21.871,21.871,0,0,0,4.071-.709,89.961,89.961,0,0,0,13.9-5.335c3.869-1.869,7.658-3.839,11.391-5.879-.785,1.635-1.522,3.3-2.184,5.016a27.516,27.516,0,0,0-.974,3.231,11.205,11.205,0,0,0-.31,1.771,6.806,6.806,0,0,0,.045,2.037,6.042,6.042,0,0,0,.4,1.15,3.166,3.166,0,0,0,.931,1.15,3.312,3.312,0,0,0,1.283.577,5.683,5.683,0,0,0,1.2.132,6.754,6.754,0,0,0,1.947-.355,15.422,15.422,0,0,0,1.637-.619,26.179,26.179,0,0,0,2.966-1.595q1.418-.841,2.746-1.771,2.654-1.859,5.178-3.9,2.479-1.992,4.914-4.116c.389-.347.772-.7,1.16-1.052a8.444,8.444,0,0,0-.275,2.026v.488a.416.416,0,0,1,.044.176v.221c.027.176.058.339.089.488a12.9,12.9,0,0,0,.354,1.37,6.17,6.17,0,0,0,1.549,2.569,5.516,5.516,0,0,0,1.328.974,5.269,5.269,0,0,0,1.46.486,7.491,7.491,0,0,0,2.788.089,16.6,16.6,0,0,0,2.523-.532,19.006,19.006,0,0,0,2.3-.842,46.962,46.962,0,0,0,4.25-2.124q2.033-1.195,3.982-2.478a4.625,4.625,0,0,1,.4-.265c.06-.06.1-.105.134-.132v.044a7.061,7.061,0,0,0-.488,1.858,4.593,4.593,0,0,0,.044,1.107,3.116,3.116,0,0,0,.4,1.152,3.191,3.191,0,0,0,.842.929,3.228,3.228,0,0,0,.929.532,6.718,6.718,0,0,0,1.858.488c.59.058,1.181.089,1.772.089a31.36,31.36,0,0,0,3.32-.355q1.636-.308,3.186-.664,3.189-.795,6.242-1.814t6.063-2.17c.727-.267,1.43-.57,2.147-.85a17.4,17.4,0,0,0-.552,2.755,8.478,8.478,0,0,0,0,2.123,6.169,6.169,0,0,0,.664,2.259,4.992,4.992,0,0,0,1.725,1.859,6.546,6.546,0,0,0,2.17.885,10.025,10.025,0,0,0,2.037.221h.973l.444-.045h.486q1.815-.133,3.585-.4a62.136,62.136,0,0,0,7.039-1.46,99.715,99.715,0,0,0,13.457-4.737q6.5-2.789,12.747-6.065,3.143-1.682,6.2-3.452,3.053-1.725,6.019-3.675a.732.732,0,0,0,.422-.553.994.994,0,0,0-.111-.685m-37.361-15.1q4.338-5.489,8.942-10.713,4.558-5.268,9.428-10.314,2.392-2.479,4.913-4.871,1.815-1.769,3.675-3.407l-.044.044c0,.031-.014.044-.045.044q-2.079,2.746-4.338,5.444-2.212,2.658-4.515,5.314-9.165,10.534-18.724,20.849L314.652,88.5q3.23-4.515,6.684-8.852m-141.563,13.5c.029,0,.044.006.044.023s-.015.023-.044.023Zm-9.827,6.906q-1.9,1.282-3.9,2.478a70.051,70.051,0,0,1-6.551,3.5,21.714,21.714,0,0,1-2.966,1.129,11.264,11.264,0,0,1-2.391.511v-.179a6.508,6.508,0,0,0,.132-.664,6.834,6.834,0,0,1,1.241-2.656,11.48,11.48,0,0,1,5.134-3.717,16.317,16.317,0,0,1,6.595-1.2,8.967,8.967,0,0,1,3.233.486,4.777,4.777,0,0,0-.532.312m-22.089,40.9a104.527,104.527,0,0,1-10.136,11.155,16.834,16.834,0,0,1-5.755,3.808,2.471,2.471,0,0,1-1.086.087,1.186,1.186,0,0,1-.687-.575,4.415,4.415,0,0,1-.509-1.307,8.841,8.841,0,0,1-.242-1.57,6,6,0,0,1,1.084-2.766,25.936,25.936,0,0,1,2.191-2.9,64.506,64.506,0,0,1,5.268-5.357q5.622-5.089,11.73-9.65,5.045-3.763,10.225-7.3-5.8,8.409-12.084,16.378" transform="translate(73.422 26.245)"/>
    </g>
  </g>
</svg>
