<svg xmlns="http://www.w3.org/2000/svg" xmlns:xlink="http://www.w3.org/1999/xlink" width="37" height="37" viewBox="0 0 37 37">
  <defs>
    <style>
      .cls-1 {
        fill: #fff;
      }

      .cls-2 {
        clip-path: url(#clip-path);
      }
    </style>
    <clipPath id="clip-path">
      <rect id="Rectangle_36" data-name="Rectangle 36" class="cls-1" width="37" height="37" transform="translate(0.202 0.202)"/>
    </clipPath>
  </defs>
  <g id="Group_25" data-name="Group 25" transform="translate(-0.202 -0.202)">
    <g id="Group_9" data-name="Group 9" class="cls-2" transform="translate(0 0)">
      <path id="Path_10" data-name="Path 10" class="cls-1" d="M18.6,4.706a5.344,5.344,0,1,1-5.344,5.344A5.35,5.35,0,0,1,18.6,4.706m0,19.948c10.761,0,13.609,5.463,13.872,7.838H4.729c.263-2.375,3.111-7.838,13.872-7.838M18.6,1.5a8.55,8.55,0,1,0,8.55,8.55A8.55,8.55,0,0,0,18.6,1.5m0,19.948c-14.249,0-17.1,8.55-17.1,11.4q0,.059,0,.119A2.791,2.791,0,0,0,4.29,35.7H32.968a2.792,2.792,0,0,0,2.732-2.85c0-2.85-2.85-11.4-17.1-11.4" transform="translate(0.103 0.103)"/>
    </g>
  </g>
</svg>
