<svg xmlns="http://www.w3.org/2000/svg" width="37.569" height="45.192" viewBox="0 0 37.569 45.192">
  <defs>
    <style>
      .cls-1 {
        fill: #fff;
        stroke: #fff;
      }
    </style>
  </defs>
  <g id="Group_23" data-name="Group 23" transform="translate(-641.5 -142.5)">
    <path id="Path_21" data-name="Path 21" class="cls-1" d="M767.761,320.476a1.763,1.763,0,0,0,1.761-1.761V307.761a1.761,1.761,0,0,0-3.521,0v10.954A1.763,1.763,0,0,0,767.761,320.476Z" transform="translate(-110.907 -148.142)"/>
    <path id="Path_22" data-name="Path 22" class="cls-1" d="M676.668,143H643.9a1.9,1.9,0,0,0-1.9,1.9v40.391a1.9,1.9,0,0,0,1.9,1.9h32.768a1.9,1.9,0,0,0,1.9-1.9V144.9A1.9,1.9,0,0,0,676.668,143Zm.023,1.9v40.391a.023.023,0,0,1-.023.023H661.224V144.878h15.445A.023.023,0,0,1,676.691,144.9Zm-17.346-.023v40.436H643.9a.023.023,0,0,1-.023-.023V144.9a.023.023,0,0,1,.023-.023Z"/>
    <path id="Path_23" data-name="Path 23" class="cls-1" d="M832.76,306a1.763,1.763,0,0,0-1.76,1.761v10.954a1.761,1.761,0,1,0,3.521,0V307.761A1.763,1.763,0,0,0,832.76,306Z" transform="translate(-169.044 -148.142)"/>
  </g>
</svg>
