<svg xmlns="http://www.w3.org/2000/svg" width="46" height="29.588" viewBox="0 0 46 29.588">
  <defs>
    <style>
      .cls-1 {
        fill: #fff;
      }
    </style>
  </defs>
  <path id="Path_24" data-name="Path 24" class="cls-1" d="M88.88,136.764l-16.723-5.237a17.088,17.088,0,0,1,1.8-1.853c1.549-1.442,3.3-3.076,3.3-5.3a7.106,7.106,0,1,0-14.213,0,6.306,6.306,0,0,0,1.028,3.618,1.921,1.921,0,1,0,3.106-2.261,2.946,2.946,0,0,1-.292-1.357,3.264,3.264,0,1,1,6.528,0c0,.548-1.252,1.713-2.08,2.485a11.159,11.159,0,0,0-3.328,4.3c-.018.006-.037.007-.055.013l-17.833,5.585a5.165,5.165,0,0,0,1.544,10.095H87.336a5.165,5.165,0,0,0,1.544-10.095Zm-1.544,6.253H51.67a1.323,1.323,0,0,1-.4-2.586l17.833-5.585a1.322,1.322,0,0,1,.791,0l17.833,5.585A1.323,1.323,0,0,1,87.336,143.016Z" transform="translate(-46.503 -117.27)"/>
</svg>
