<svg xmlns="http://www.w3.org/2000/svg" width="18" height="19.777" viewBox="0 0 18 19.777">
  <defs>
    <style>
      .cls-1 {
        fill: #f2f2f2;
      }
    </style>
  </defs>
  <path id="canadian-maple-leaf" class="cls-1" d="M36.936,13.585c.1-.1,4.064-3.569,4.064-3.569l-.676-.29c-.386-.189-.286-.444-.193-.672.093-.294.776-2.6.776-2.6s-1.842.386-2.229.483c-.29.093-.386-.1-.483-.29S37.616,5.4,37.616,5.4,35.585,7.71,35.488,7.8c-.386.29-.776,0-.68-.386,0-.386,1.066-5.006,1.066-5.006s-1.163.672-1.549.865c-.29.193-.487.193-.68-.193C33.449,2.793,32,0,32,0s-1.448,2.793-1.642,3.082c-.193.386-.386.386-.68.193-.386-.193-1.549-.865-1.549-.865s1.066,4.62,1.066,5.006c.1.386-.29.676-.68.386-.1-.1-2.128-2.406-2.128-2.406S25.9,6.451,25.8,6.644s-.193.382-.483.29c-.39-.1-2.229-.483-2.229-.483s.68,2.306.776,2.6c.093.232.193.483-.193.672L23,10.016s3.963,3.473,4.064,3.569c.2.193.386.29.2.869s-.39,1.356-.39,1.356,3.677-.776,4.067-.873c.336-.035.707.1.707.483s-.224,4.357-.224,4.357h1.159s-.224-3.967-.224-4.357.367-.518.711-.483c.386.1,4.064.873,4.064.873s-.193-.776-.386-1.356S36.743,13.778,36.936,13.585Z" transform="translate(-23)"/>
</svg>
