<svg xmlns="http://www.w3.org/2000/svg" width="18" height="18" viewBox="0 0 18 18">
  <defs>
    <style>
      .cls-1 {
        fill: #f2f2f2;
      }
    </style>
  </defs>
  <path id="face-smile-regular" class="cls-1" d="M16.313,9A7.313,7.313,0,1,0,9,16.313,7.313,7.313,0,0,0,16.313,9ZM0,9a9,9,0,1,1,9,9A9,9,0,0,1,0,9Zm6.244,2.183a3.783,3.783,0,0,0,5.512,0A.843.843,0,1,1,13,12.326a5.46,5.46,0,0,1-7.988,0,.843.843,0,1,1,1.241-1.143ZM5.077,7.313A1.125,1.125,0,1,1,6.2,8.438,1.125,1.125,0,0,1,5.077,7.313Zm6.75-1.125A1.125,1.125,0,1,1,10.7,7.313,1.125,1.125,0,0,1,11.827,6.188Z"/>
</svg>
