<svg xmlns="http://www.w3.org/2000/svg" width="18" height="18" viewBox="0 0 18 18">
  <defs>
    <style>
      .cls-1 {
        fill: #f2f2f2;
      }
    </style>
  </defs>
  <path id="face-meh-regular" class="cls-1" d="M16.313,9A7.313,7.313,0,1,1,9,1.688,7.312,7.312,0,0,1,16.313,9ZM9,0a9,9,0,1,0,9,9A9,9,0,0,0,9,0ZM6.2,8.438A1.125,1.125,0,1,0,5.077,7.313,1.125,1.125,0,0,0,6.2,8.438Zm6.75-1.125a1.125,1.125,0,1,0-1.125,1.125A1.125,1.125,0,0,0,12.952,7.313ZM6.469,11.531a.844.844,0,0,0,0,1.688h5.063a.844.844,0,0,0,0-1.687Z"/>
</svg>
