<svg id="coat" xmlns="http://www.w3.org/2000/svg" width="28.573" height="53.86" viewBox="0 0 28.573 53.86">
  <g id="Group_16" data-name="Group 16" transform="translate(0)">
    <path id="Path_17" data-name="Path 17" d="M148.758,35.241,146.222,6.5a2.658,2.658,0,0,0-1.906-2.308l-1.086-.31c-.452-.8-2.43-3.88-6.052-3.88h-5.4c-3.621,0-5.6,3.08-6.052,3.88l-1.087.31A2.658,2.658,0,0,0,122.735,6.5L120.2,35.241a1.733,1.733,0,0,0,.957,1.712l2.523,1.262c-.627,4.476-1.264,9.48-1.65,13.752a1.74,1.74,0,0,0,1.738,1.893H145.19a1.74,1.74,0,0,0,1.738-1.893c-.386-4.272-1.023-9.276-1.65-13.752l2.523-1.262A1.733,1.733,0,0,0,148.758,35.241ZM142.583,5.449l1.269.363a.948.948,0,0,1,.4.233c-1.4,8.008-2.219,16.567-2.45,19.142h-6.053l6.7-15.921a.843.843,0,0,0-.076-.795l-1.331-2Zm-1.156-1.256-2.019,1.346a.843.843,0,0,0-.234,1.169l1.548,2.321-4.431,10.524,2.595-17.515A6.274,6.274,0,0,1,141.427,4.193ZM131.78,1.687h5.452L136.95,3.6h-4.942l-.283-1.91Zm-1.708.352,2.595,17.515L128.235,9.03l1.548-2.321a.843.843,0,0,0-.234-1.169L127.53,4.193A6.272,6.272,0,0,1,130.072,2.038ZM125.1,5.812l1.269-.363,1.538,1.025-1.331,2a.843.843,0,0,0-.076.795l6.7,15.921h-6.053c-.231-2.575-1.054-11.134-2.45-19.142A.95.95,0,0,1,125.1,5.812ZM121.91,35.445a.055.055,0,0,1-.031-.055l2.06-23.353c.985,6.939,1.521,13.1,1.594,13.96-.119.72-.826,5.039-1.6,10.458Zm11.725-8.515V52.174h-9.868a.059.059,0,0,1-.046-.019.041.041,0,0,1-.012-.035c.84-9.3,2.883-22.126,3.39-25.245h2.938v11.75a.843.843,0,0,0,1.687,0V26.874h1.914C133.637,26.892,133.635,26.911,133.635,26.93ZM132.258,5.285H136.7l-2.221,14.991Zm12.979,46.869a.06.06,0,0,1-.046.019h-9.868V37.666l.056,0a1.743,1.743,0,0,0,0-3.486l-.056,0V32.268l.056,0a1.743,1.743,0,0,0,0-3.486l-.056,0V26.93c0-.019,0-.038,0-.056h6.539c.507,3.12,2.55,15.941,3.39,25.245A.042.042,0,0,1,145.236,52.154Zm1.811-16.709-2.019,1.009c-.778-5.419-1.486-9.738-1.6-10.458.073-.864.609-7.021,1.594-13.96l2.061,23.354A.057.057,0,0,1,147.047,35.445Z" transform="translate(-120.192)"/>
  </g>
</svg>
