<svg id="jeans" xmlns="http://www.w3.org/2000/svg" width="24.939" height="53.86" viewBox="0 0 24.939 53.86">
  <defs>
    <style>
      .cls-1 {
        fill: #fff;
      }
    </style>
  </defs>
  <g id="Group_17" data-name="Group 17" transform="translate(0)">
    <path id="Path_18" data-name="Path 18" class="cls-1" d="M161.663,4.407c-.03-.031-.061-.061-.092-.091V.843A.843.843,0,0,0,160.727,0H139.138a.843.843,0,0,0-.843.843V4.316q-.047.044-.092.091a2.621,2.621,0,0,0-.738,1.931l1.73,46.709a.843.843,0,0,0,.843.812h8.1a.843.843,0,0,0,.843-.843V17.035a.956.956,0,1,1,1.912,0V53.017a.843.843,0,0,0,.843.843h8.1a.843.843,0,0,0,.843-.812L162.4,6.338A2.62,2.62,0,0,0,161.663,4.407Zm-6.389-2.72h4.61V3.6c-.041,0-.083,0-.124,0h-4.486Zm-15.292,0h4.61V3.6h-4.486c-.042,0-.083,0-.124,0Zm-.831,4.589a.956.956,0,0,1,.955-.991h2.687v.956a3.658,3.658,0,0,1-3.508,3.651Zm9.939,8.255a2.646,2.646,0,0,0-1.8,2.5V52.173h-6.44l-1.5-40.6a5.347,5.347,0,0,0,5.132-5.336V5.285h4.61v9.247ZM146.278,3.6V1.687h7.309V3.6h-7.309Zm12.737,48.575h-6.44V17.035a2.646,2.646,0,0,0-1.8-2.5V5.285h4.61v.956a5.347,5.347,0,0,0,5.132,5.336Zm1.566-42.282a3.658,3.658,0,0,1-3.508-3.651V5.285h2.687a.956.956,0,0,1,.955.991Z" transform="translate(-137.463)"/>
  </g>
</svg>
