<svg xmlns="http://www.w3.org/2000/svg" width="79.099" height="74.413" viewBox="0 0 79.099 74.413">
  <defs>
    <style>
      .cls-1 {
        fill: #5a6c73;
      }
    </style>
  </defs>
  <g id="Group_62" data-name="Group 62" transform="translate(-168.094 -405.502)">
    <path id="Path_26" data-name="Path 26" class="cls-1" d="M213.139,510.391a9.462,9.462,0,0,1-1.908-2,3.187,3.187,0,0,1-.518-1.7v-.245a1.792,1.792,0,0,1,.382-1.241,1.618,1.618,0,0,1,2.181,0,1.8,1.8,0,0,1,.382,1.241v.436h2.78v-.491a4.315,4.315,0,1,0-8.614,0v.409a5.9,5.9,0,0,0,.79,3.039,12.619,12.619,0,0,0,2.753,3.012,10.57,10.57,0,0,1,1.963,2.031,3.158,3.158,0,0,1,.545,1.758v.627q0,1.8-1.636,1.8t-1.636-1.8v-1.091h-2.78v1.281a4.188,4.188,0,0,0,1.159,3.162,5.468,5.468,0,0,0,6.624,0,4.19,4.19,0,0,0,1.159-3.162V516.5a5.822,5.822,0,0,0-.817-3.053A13.316,13.316,0,0,0,213.139,510.391Z" transform="translate(-20.85 -50.696)"/>
    <path id="Path_27" data-name="Path 27" class="cls-1" d="M231.59,514.435h-9.055v2.726h3.085v11.493h2.889V517.16h3.08Z" transform="translate(-28.571 -57.167)"/>
    <path id="Path_28" data-name="Path 28" class="cls-1" d="M241.689,528.7h-.055l-2.426-6.76h-3.053l4.007,10.441v8.641h2.89v-8.614L247,521.938h-3Z" transform="translate(-35.718 -61.105)"/>
    <path id="Path_29" data-name="Path 29" class="cls-1" d="M247.5,501.556h16.356v-2.89H244.775v7.715H247.5Z" transform="translate(-40.242 -48.893)"/>
    <rect id="Rectangle_219" data-name="Rectangle 219" class="cls-1" width="2.89" height="15.282" transform="translate(211.856 454.111)"/>
    <path id="Path_30" data-name="Path 30" class="cls-1" d="M271.012,510.465h5.1v-2.672h-7.987v19.082h2.89v-8.342h2.943v-2.671h-2.943Z" transform="translate(-52.495 -53.682)"/>
    <path id="Path_31" data-name="Path 31" class="cls-1" d="M284,523.047h-.055l-2.426-6.76h-3.053l4.007,10.44v5.49h2.889v-5.463l3.953-10.468h-3Z" transform="translate(-57.921 -58.139)"/>
    <path id="Path_32" data-name="Path 32" class="cls-1" d="M240.963,439.022l-28.755-9.007a29.429,29.429,0,0,1,3.1-3.187c2.663-2.479,5.682-5.289,5.682-9.108a12.22,12.22,0,0,0-24.439,0,10.848,10.848,0,0,0,1.768,6.222,3.3,3.3,0,0,0,5.341-3.889,5.064,5.064,0,0,1-.5-2.334,5.613,5.613,0,1,1,11.226,0c0,.943-2.152,2.947-3.577,4.273-2.255,2.1-4.738,4.421-5.722,7.4-.031.009-.064.012-.1.022l-30.665,9.6a8.882,8.882,0,0,0,2.655,17.358h7.678c0-.1-.009-.189-.009-.285v-.409a6.114,6.114,0,0,1,1.675-4.506,5.436,5.436,0,0,1,2.206-1.32v-.086h-11.55a2.276,2.276,0,0,1-.68-4.447l30.665-9.6a2.284,2.284,0,0,1,1.36,0l30.665,9.6a2.276,2.276,0,0,1-.68,4.447l-13.217,0v6.6h13.217a8.882,8.882,0,0,0,2.655-17.358Z"/>
    <path id="Path_33" data-name="Path 33" class="cls-1" d="M224.687,503.534H229.9v-4.863l-9.037,0v.082a5.447,5.447,0,0,1,2.218,1.323A5.76,5.76,0,0,1,224.687,503.534Z" transform="translate(-27.694 -48.893)"/>
  </g>
</svg>
