<svg id="shirt" xmlns="http://www.w3.org/2000/svg" width="53.862" height="53.862" viewBox="0 0 53.862 53.862">
  <g id="Group_18" data-name="Group 18" transform="translate(0 0)">
    <path id="Path_19" data-name="Path 19" d="M53.85,19.6l-2.117-12.7a6.239,6.239,0,0,0-4.642-5.028L41.233.4A13.447,13.447,0,0,0,37.974,0H15.887a13.447,13.447,0,0,0-3.259.4L6.771,1.865A6.239,6.239,0,0,0,2.129,6.894L.012,19.6a.843.843,0,0,0,.544.931l9.34,3.4V53.018a.843.843,0,0,0,.843.843H43.123a.843.843,0,0,0,.843-.843v-29.1l9.34-3.4A.843.843,0,0,0,53.85,19.6ZM35.04,1.687a8.153,8.153,0,0,1-16.218,0H35.04Zm-19.152,0h1.241a9.839,9.839,0,0,0,19.6,0h1.241q.338,0,.675.02a11.673,11.673,0,0,1-3.484,7.518,11.75,11.75,0,0,1-16.448.022,11.677,11.677,0,0,1-3.506-7.54Q15.549,1.687,15.887,1.687ZM9.9,22.128l-8.1-2.947.279-1.672L9.9,20.327v1.8ZM42.28,52.175h-30.7V50.263h30.7Zm.843-39.581a.843.843,0,0,0-.843.843V48.576h-30.7V13.437a.843.843,0,1,0-1.687,0v5.1L2.351,15.818,3.792,7.171A4.552,4.552,0,0,1,7.18,3.5l5.857-1.464c.166-.041.333-.078.5-.112a13.354,13.354,0,0,0,4,8.528,13.437,13.437,0,0,0,18.81-.025,13.348,13.348,0,0,0,3.976-8.5c.167.034.334.071.5.112L46.682,3.5A4.552,4.552,0,0,1,50.07,7.171l1.441,8.647-7.544,2.716v-5.1A.843.843,0,0,0,43.123,12.594Zm.843,9.535v-1.8l7.826-2.817.279,1.672Z" transform="translate(0 0)"/>
  </g>
</svg>
