<svg id="sneaker" xmlns="http://www.w3.org/2000/svg" width="60.488" height="27.575" viewBox="0 0 60.488 27.575">
  <g id="Group_19" data-name="Group 19" transform="translate(0 0)">
    <path id="Path_20" data-name="Path 20" d="M60.488,156.649a6,6,0,0,0-5.349-5.961,30.414,30.414,0,0,1-4.446-.832c-5.573-1.486-20.727-8.19-25.238-10.209a3.944,3.944,0,0,0-4.431.821l-5.278,5.278a2.072,2.072,0,0,1-2.132.5L7.68,144.271a1.072,1.072,0,0,1-.734-1.018v-.564a1.96,1.96,0,0,0-1.957-1.957H3.855a2.973,2.973,0,0,0-2.962,2.781l-.888,14.12a3.939,3.939,0,0,0,1,2.856v4.425a1.959,1.959,0,0,0,1.957,1.957H36.305a76.664,76.664,0,0,0,20.618-2.805,2.982,2.982,0,0,0,1.831-1.524l1.633-3.266a.944.944,0,0,0,.1-.424h0v-2.2ZM50.2,151.685a32.29,32.29,0,0,0,4.723.885c.12.013.238.032.354.055-.343.111-.734.23-1.18.356a62.01,62.01,0,0,1-9.879,1.8,3.987,3.987,0,0,0-2.183.946l-1.4,1.215a.952.952,0,0,0-.216-.043c-2.55-.2-5.223-.471-7.873-.785l7.239-4.337c3.207.028,5.373-.415,6.584-1.339C47.868,150.979,49.182,151.413,50.2,151.685ZM23.529,154.9c-1-.149-1.971-.3-2.894-.441l6.2-3.713a2.089,2.089,0,0,1,1.448-.265q1.042.19,2.039.352Zm9.749-3.632q1.631.212,3.106.337l-6.89,4.128c-1.013-.132-2.014-.267-2.994-.4Zm5.378,7.384-2.588,2.239c-3.157-.084-6.01-.274-8.791-.459-3.587-.239-7.293-.485-11.627-.505l-2.677-4.818C17.537,155.912,28.758,157.787,38.656,158.653ZM2.783,143.631a1.076,1.076,0,0,1,1.072-1.006H4.988a.063.063,0,0,1,.063.063v.564a2.964,2.964,0,0,0,2.029,2.815l5.933,1.978a3.956,3.956,0,0,0,4.071-.961l5.278-5.278a2.063,2.063,0,0,1,2.318-.431l1.152.514-.958,1.042a.947.947,0,1,0,1.394,1.282l1.393-1.514,1.621.713-.812.882a.947.947,0,1,0,1.394,1.282l1.255-1.364q.8.346,1.629.7l-.682.741a.947.947,0,1,0,1.394,1.282l1.135-1.233q.814.346,1.639.694l-.572.622a.947.947,0,1,0,1.394,1.282l1.037-1.127c2,.83,3.982,1.63,5.806,2.333-2.691.707-8.154.4-15.279-.894a3.981,3.981,0,0,0-2.76.5l-8.133,4.872c-3.012-.493-5.23-.891-6.1-1.05a10.048,10.048,0,0,0-4.387-3.225l-4.728-1.773ZM1.9,157.742l.491-7.819,4.187,1.57a8.153,8.153,0,0,1,4.26,3.671l2.645,4.762h-9.5A2.084,2.084,0,0,1,1.9,157.742Zm55.164,3.952a1.082,1.082,0,0,1-.666.552,75.851,75.851,0,0,1-20.09,2.73H2.968a.063.063,0,0,1-.063-.063v-3.1l.063,0H15.091c4.514,0,8.35.256,12.06.5,3.741.249,7.608.507,12.186.507a73.132,73.132,0,0,0,18.385-2.457Zm1.533-3.541a71.622,71.622,0,0,1-19.257,2.782l-.422,0,4.365-3.776a2.129,2.129,0,0,1,1.151-.5c7.756-.855,11.766-2.286,13.05-2.819a4.082,4.082,0,0,1,1.113,2.8v1.5Z" transform="translate(0 -139.296)"/>
  </g>
</svg>
