<svg xmlns="http://www.w3.org/2000/svg" width="18" height="20.728" viewBox="0 0 18 20.728">
  <defs>
    <style>
      .cls-1 {
        fill: #f2f2f2;
      }
    </style>
  </defs>
  <path id="snowflake-regular" class="cls-1" d="M10.689,0a.969.969,0,0,1,.972.972V2.838l.931-.931a.97.97,0,0,1,1.372,1.372L11.657,5.587v3.1l2.68-1.546.846-3.15a.972.972,0,0,1,1.878.5l-.34,1.267,1.5-.866a.972.972,0,0,1,.972,1.684l-1.5.866,1.275.34a.972.972,0,0,1-.5,1.878l-3.15-.846-2.684,1.551,2.68,1.546,3.15-.846a.972.972,0,1,1,.5,1.878l-1.271.344,1.5.866a.972.972,0,0,1-.972,1.684l-1.5-.866.34,1.275a.972.972,0,1,1-1.878.5l-.846-3.15-2.676-1.551v3.1l2.308,2.308A.97.97,0,1,1,12.6,18.825l-.931-.931v1.862a.972.972,0,1,1-1.943,0V17.89l-.931.931a.97.97,0,1,1-1.372-1.372l2.308-2.308V12.048l-2.68,1.546L6.2,16.744a.972.972,0,0,1-1.878-.5l.336-1.271-1.5.866a.972.972,0,0,1-.972-1.684l1.5-.866-1.275-.34a.972.972,0,1,1,.5-1.878l3.15.846,2.684-1.551L6.066,8.817l-3.154.842a.972.972,0,0,1-.5-1.878l1.275-.34-1.5-.866A.972.972,0,0,1,3.155,4.89l1.5.866-.34-1.275A.972.972,0,0,1,6.2,3.98l.846,3.15L9.717,8.68v-3.1L7.41,3.279A.97.97,0,1,1,8.782,1.907l.931.931V.972A.969.969,0,0,1,10.685,0Z" transform="translate(-1.689)"/>
</svg>
