<svg xmlns="http://www.w3.org/2000/svg" width="109.878" height="125.575" viewBox="0 0 109.878 125.575">
  <defs>
    <style>
      .cls-1 {
        fill: #fff;
      }
    </style>
  </defs>
  <path id="Icon_metro-file-picture" data-name="Icon metro-file-picture" class="cls-1" d="M98.68,111.806H20.2v-15.7L43.741,56.867,75.993,96.109l22.687-15.7Zm0-51.015A11.773,11.773,0,1,1,86.907,49.019,11.773,11.773,0,0,1,98.68,60.791ZM109.2,30.02A111.2,111.2,0,0,0,98.512,17.793,111.223,111.223,0,0,0,86.285,7.1c-6.325-4.638-9.393-5.174-11.15-5.174H14.309A9.822,9.822,0,0,0,4.5,11.739V117.692a9.822,9.822,0,0,0,9.811,9.811h90.257a9.822,9.822,0,0,0,9.811-9.811V41.17c0-1.758-.536-4.826-5.174-11.15Zm-16.24-6.677a107.039,107.039,0,0,1,8.9,9.979H82.983V14.443a106.929,106.929,0,0,1,9.979,8.9Zm13.566,94.35a1.989,1.989,0,0,1-1.962,1.962H14.309a1.989,1.989,0,0,1-1.962-1.962V11.739a1.989,1.989,0,0,1,1.962-1.962H75.135v27.47a3.924,3.924,0,0,0,3.924,3.924h27.47Z" transform="translate(-4.499 -1.928)"/>
</svg>
